<svg xmlns="http://www.w3.org/2000/svg" viewBox="0 0 960 520" role="img" aria-label="ANSWER-ACC on the frozen bench: harness v5 to v8 takes the local 14B from 33% to 100%; on the same bench the 14B sits between gpt-4o and the frontier models.">
<text x="24" y="34" font-family="-apple-system,'Segoe UI',Helvetica,Arial,sans-serif" font-size="20" font-weight="700" fill="#ffffff">The Harness Effect</text>
<text x="24" y="56" font-family="-apple-system,'Segoe UI',Helvetica,Arial,sans-serif" font-size="13" fill="#c3c2b7">ANSWER-ACC on the same frozen 9-task tool-use bench &#183; N=5 per task (45 trials) &#183; whiskers = Wilson 95% CI</text>
<line x1="64" y1="440.0" x2="936" y2="440.0" stroke="#33322f" stroke-width="1"/>
<text x="56" y="444.0" text-anchor="end" font-family="-apple-system,'Segoe UI',Helvetica,Arial,sans-serif" font-size="11" fill="#c3c2b7">0%</text>
<line x1="64" y1="370.0" x2="936" y2="370.0" stroke="#33322f" stroke-width="1"/>
<text x="56" y="374.0" text-anchor="end" font-family="-apple-system,'Segoe UI',Helvetica,Arial,sans-serif" font-size="11" fill="#c3c2b7">25%</text>
<line x1="64" y1="300.0" x2="936" y2="300.0" stroke="#33322f" stroke-width="1"/>
<text x="56" y="304.0" text-anchor="end" font-family="-apple-system,'Segoe UI',Helvetica,Arial,sans-serif" font-size="11" fill="#c3c2b7">50%</text>
<line x1="64" y1="230.0" x2="936" y2="230.0" stroke="#33322f" stroke-width="1"/>
<text x="56" y="234.0" text-anchor="end" font-family="-apple-system,'Segoe UI',Helvetica,Arial,sans-serif" font-size="11" fill="#c3c2b7">75%</text>
<line x1="64" y1="160.0" x2="936" y2="160.0" stroke="#33322f" stroke-width="1"/>
<text x="56" y="164.0" text-anchor="end" font-family="-apple-system,'Segoe UI',Helvetica,Arial,sans-serif" font-size="11" fill="#c3c2b7">100%</text>
<text x="255" y="100" text-anchor="middle" font-family="-apple-system,'Segoe UI',Helvetica,Arial,sans-serif" font-size="14" font-weight="600" fill="#ffffff">Same model, harness varies</text>
<text x="255" y="118" text-anchor="middle" font-family="-apple-system,'Segoe UI',Helvetica,Arial,sans-serif" font-size="11" fill="#c3c2b7">Qwen3-14B Q4 local &#183; harness v5&#8594;v8</text>
<text x="725" y="100" text-anchor="middle" font-family="-apple-system,'Segoe UI',Helvetica,Arial,sans-serif" font-size="14" font-weight="600" fill="#ffffff">Same bench &amp; harness, model varies</text>
<text x="725" y="118" text-anchor="middle" font-family="-apple-system,'Segoe UI',Helvetica,Arial,sans-serif" font-size="11" fill="#c3c2b7">harness v7 &#183; cloud models via OpenRouter</text>
<line x1="490" y1="84" x2="490" y2="440" stroke="#33322f" stroke-width="1"/>
<path d="M84.0,440 V350.76 Q84.0,346.76 88.0,346.76 H136.0 Q140.0,346.76 140.0,350.76 V440 Z" fill="#3987e5"/>
<line x1="112" y1="380.08" x2="112" y2="305.88" stroke="#c3c2b7" stroke-width="1.5"/>
<line x1="107" y1="380.08" x2="117" y2="380.08" stroke="#c3c2b7" stroke-width="1.5"/>
<line x1="107" y1="305.88" x2="117" y2="305.88" stroke="#c3c2b7" stroke-width="1.5"/>
<text x="112" y="297.88" text-anchor="middle" font-family="-apple-system,'Segoe UI',Helvetica,Arial,sans-serif" font-size="14" font-weight="600" fill="#ffffff">33.3%</text>
<text x="112" y="460" text-anchor="middle" font-family="-apple-system,'Segoe UI',Helvetica,Arial,sans-serif" font-size="13" font-weight="600" fill="#ffffff">v5</text>
<text x="112" y="476" text-anchor="middle" font-family="-apple-system,'Segoe UI',Helvetica,Arial,sans-serif" font-size="11" fill="#c3c2b7">baseline</text>
<path d="M179.0,440 V195.08 Q179.0,191.08 183.0,191.08 H231.0 Q235.0,191.08 235.0,195.08 V440 Z" fill="#3987e5"/>
<line x1="207" y1="225.8" x2="207" y2="173.44" stroke="#c3c2b7" stroke-width="1.5"/>
<line x1="202" y1="225.8" x2="212" y2="225.8" stroke="#c3c2b7" stroke-width="1.5"/>
<line x1="202" y1="173.44" x2="212" y2="173.44" stroke="#c3c2b7" stroke-width="1.5"/>
<text x="207" y="165.44" text-anchor="middle" font-family="-apple-system,'Segoe UI',Helvetica,Arial,sans-serif" font-size="14" font-weight="600" fill="#ffffff">88.9%</text>
<text x="207" y="460" text-anchor="middle" font-family="-apple-system,'Segoe UI',Helvetica,Arial,sans-serif" font-size="13" font-weight="600" fill="#ffffff">v6</text>
<text x="207" y="476" text-anchor="middle" font-family="-apple-system,'Segoe UI',Helvetica,Arial,sans-serif" font-size="11" fill="#c3c2b7">no-think</text>
<path d="M274.0,440 V195.08 Q274.0,191.08 278.0,191.08 H326.0 Q330.0,191.08 330.0,195.08 V440 Z" fill="#3987e5"/>
<line x1="302" y1="225.8" x2="302" y2="173.44" stroke="#c3c2b7" stroke-width="1.5"/>
<line x1="297" y1="225.8" x2="307" y2="225.8" stroke="#c3c2b7" stroke-width="1.5"/>
<line x1="297" y1="173.44" x2="307" y2="173.44" stroke="#c3c2b7" stroke-width="1.5"/>
<text x="302" y="165.44" text-anchor="middle" font-family="-apple-system,'Segoe UI',Helvetica,Arial,sans-serif" font-size="14" font-weight="600" fill="#ffffff">88.9%</text>
<text x="302" y="460" text-anchor="middle" font-family="-apple-system,'Segoe UI',Helvetica,Arial,sans-serif" font-size="13" font-weight="600" fill="#ffffff">v7</text>
<text x="302" y="476" text-anchor="middle" font-family="-apple-system,'Segoe UI',Helvetica,Arial,sans-serif" font-size="11" fill="#c3c2b7">transcribe</text>
<path d="M369.0,440 V164.0 Q369.0,160.0 373.0,160.0 H421.0 Q425.0,160.0 425.0,164.0 V440 Z" fill="#3987e5"/>
<line x1="397" y1="182.12" x2="397" y2="160.0" stroke="#c3c2b7" stroke-width="1.5"/>
<line x1="392" y1="182.12" x2="402" y2="182.12" stroke="#c3c2b7" stroke-width="1.5"/>
<line x1="392" y1="160.0" x2="402" y2="160.0" stroke="#c3c2b7" stroke-width="1.5"/>
<text x="397" y="152.0" text-anchor="middle" font-family="-apple-system,'Segoe UI',Helvetica,Arial,sans-serif" font-size="14" font-weight="600" fill="#ffffff">100%</text>
<text x="397" y="460" text-anchor="middle" font-family="-apple-system,'Segoe UI',Helvetica,Arial,sans-serif" font-size="13" font-weight="600" fill="#ffffff">v8</text>
<text x="397" y="476" text-anchor="middle" font-family="-apple-system,'Segoe UI',Helvetica,Arial,sans-serif" font-size="11" fill="#c3c2b7">echo</text>
<path d="M530.0,440 V441.5 Q530.0,440.0 531.5,440.0 H580.5 Q582.0,440.0 582.0,441.5 V440 Z" fill="#6e6d68"/>
<line x1="556" y1="440.0" x2="556" y2="417.88" stroke="#c3c2b7" stroke-width="1.5"/>
<line x1="551" y1="440.0" x2="561" y2="440.0" stroke="#c3c2b7" stroke-width="1.5"/>
<line x1="551" y1="417.88" x2="561" y2="417.88" stroke="#c3c2b7" stroke-width="1.5"/>
<text x="556" y="409.88" text-anchor="middle" font-family="-apple-system,'Segoe UI',Helvetica,Arial,sans-serif" font-size="14" font-weight="600" fill="#ffffff">0%</text>
<text x="556" y="460" text-anchor="middle" font-family="-apple-system,'Segoe UI',Helvetica,Arial,sans-serif" font-size="13" font-weight="600" fill="#ffffff">gpt-4o-mini</text>
<text x="556" y="476" text-anchor="middle" font-family="-apple-system,'Segoe UI',Helvetica,Arial,sans-serif" font-size="11" fill="#c3c2b7">0/45</text>
<path d="M616.0,440 V195.08 Q616.0,191.08 620.0,191.08 H664.0 Q668.0,191.08 668.0,195.08 V440 Z" fill="#3987e5"/>
<line x1="642" y1="225.8" x2="642" y2="173.44" stroke="#c3c2b7" stroke-width="1.5"/>
<line x1="637" y1="225.8" x2="647" y2="225.8" stroke="#c3c2b7" stroke-width="1.5"/>
<line x1="637" y1="173.44" x2="647" y2="173.44" stroke="#c3c2b7" stroke-width="1.5"/>
<text x="642" y="165.44" text-anchor="middle" font-family="-apple-system,'Segoe UI',Helvetica,Arial,sans-serif" font-size="14" font-weight="600" fill="#ffffff">88.9%</text>
<text x="642" y="460" text-anchor="middle" font-family="-apple-system,'Segoe UI',Helvetica,Arial,sans-serif" font-size="13" font-weight="600" fill="#ffffff">Qwen3-14B</text>
<text x="642" y="476" text-anchor="middle" font-family="-apple-system,'Segoe UI',Helvetica,Arial,sans-serif" font-size="11" fill="#c3c2b7">40/45</text>
<path d="M702.0,440 V180.51999999999998 Q702.0,176.51999999999998 706.0,176.51999999999998 H750.0 Q754.0,176.51999999999998 754.0,180.51999999999998 V440 Z" fill="#6e6d68"/>
<line x1="728" y1="235.6" x2="728" y2="162.8" stroke="#c3c2b7" stroke-width="1.5"/>
<line x1="723" y1="235.6" x2="733" y2="235.6" stroke="#c3c2b7" stroke-width="1.5"/>
<line x1="723" y1="162.8" x2="733" y2="162.8" stroke="#c3c2b7" stroke-width="1.5"/>
<text x="728" y="154.8" text-anchor="middle" font-family="-apple-system,'Segoe UI',Helvetica,Arial,sans-serif" font-size="14" font-weight="600" fill="#ffffff">94.1%</text>
<text x="728" y="460" text-anchor="middle" font-family="-apple-system,'Segoe UI',Helvetica,Arial,sans-serif" font-size="13" font-weight="600" fill="#ffffff">gpt-4o</text>
<text x="728" y="476" text-anchor="middle" font-family="-apple-system,'Segoe UI',Helvetica,Arial,sans-serif" font-size="11" fill="#c3c2b7">16/17</text>
<path d="M788.0,440 V170.44 Q788.0,166.44 792.0,166.44 H836.0 Q840.0,166.44 840.0,170.44 V440 Z" fill="#6e6d68"/>
<line x1="814" y1="193.04" x2="814" y2="161.12" stroke="#c3c2b7" stroke-width="1.5"/>
<line x1="809" y1="193.04" x2="819" y2="193.04" stroke="#c3c2b7" stroke-width="1.5"/>
<line x1="809" y1="161.12" x2="819" y2="161.12" stroke="#c3c2b7" stroke-width="1.5"/>
<text x="814" y="153.12" text-anchor="middle" font-family="-apple-system,'Segoe UI',Helvetica,Arial,sans-serif" font-size="14" font-weight="600" fill="#ffffff">97.7%</text>
<text x="814" y="460" text-anchor="middle" font-family="-apple-system,'Segoe UI',Helvetica,Arial,sans-serif" font-size="13" font-weight="600" fill="#ffffff">Opus 4.8</text>
<text x="814" y="476" text-anchor="middle" font-family="-apple-system,'Segoe UI',Helvetica,Arial,sans-serif" font-size="11" fill="#c3c2b7">43/44</text>
<path d="M874.0,440 V164.0 Q874.0,160.0 878.0,160.0 H922.0 Q926.0,160.0 926.0,164.0 V440 Z" fill="#6e6d68"/>
<line x1="900" y1="182.12" x2="900" y2="160.0" stroke="#c3c2b7" stroke-width="1.5"/>
<line x1="895" y1="182.12" x2="905" y2="182.12" stroke="#c3c2b7" stroke-width="1.5"/>
<line x1="895" y1="160.0" x2="905" y2="160.0" stroke="#c3c2b7" stroke-width="1.5"/>
<text x="900" y="152.0" text-anchor="middle" font-family="-apple-system,'Segoe UI',Helvetica,Arial,sans-serif" font-size="14" font-weight="600" fill="#ffffff">100%</text>
<text x="900" y="460" text-anchor="middle" font-family="-apple-system,'Segoe UI',Helvetica,Arial,sans-serif" font-size="13" font-weight="600" fill="#ffffff">Sonnet 5</text>
<text x="900" y="476" text-anchor="middle" font-family="-apple-system,'Segoe UI',Helvetica,Arial,sans-serif" font-size="11" fill="#c3c2b7">45/45</text>
<rect x="640" y="24" width="12" height="12" rx="3" fill="#3987e5"/>
<text x="658" y="34" font-family="-apple-system,'Segoe UI',Helvetica,Arial,sans-serif" font-size="12" fill="#ffffff">Qwen3-14B Q4 (local, 9 GB)</text>
<rect x="830" y="24" width="12" height="12" rx="3" fill="#6e6d68"/>
<text x="848" y="34" font-family="-apple-system,'Segoe UI',Helvetica,Arial,sans-serif" font-size="12" fill="#ffffff">cloud models</text>
<text x="24" y="508" font-family="-apple-system,'Segoe UI',Helvetica,Arial,sans-serif" font-size="11" fill="#c3c2b7">bench frozen at commit e06b358 &#183; runs 2026-07-15&#8594;20, raw transcripts in results/ &#183; temp=0, same tools, same scorer</text>
</svg>